<svg xmlns="http://www.w3.org/2000/svg" xmlns:xlink="http://www.w3.org/1999/xlink" width="850" height="1000"><g transform="translate(0 0)"><path d="M0 0h850v1000H0z" fill="#fff"/><path d="M297.22 60c30 0 54.3 24.44 54.3 54.6 0 30.14-24.3 54.58-54.3 54.58H134.3c-30 0-54.3-24.44-54.3-54.6C80 84.45 104.3 60 134.3 60z" fill="#d6d6d6"/><use xlink:href="#a" transform="matrix(1,0,0,1,85,65) translate(93.77333333333334 60.22222222222223)"/><path d="M100.36 258.84h230.8v126.4h-230.8z" fill="#d6d6d6"/><use xlink:href="#b" transform="matrix(1,0,0,1,105.36392405063292,263.8404154064123) translate(44.348888888888894 50.5)"/><use xlink:href="#c" transform="matrix(1,0,0,1,105.36392405063292,263.8404154064123) translate(130.82 50.5)"/><use xlink:href="#d" transform="matrix(1,0,0,1,105.36392405063292,263.8404154064123) translate(40.72222222222223 86.94444444444444)"/><use xlink:href="#e" transform="matrix(1,0,0,1,105.36392405063292,263.8404154064123) translate(107.95777777777778 86.94444444444444)"/><path d="M215.76 474.9l135.76 109.17-135.76 109.18L80 584.07z" fill="#d6d6d6"/><use xlink:href="#f" transform="matrix(1,0,0,1,85,479.8852459016392) translate(68.22666666666666 96.5)"/><use xlink:href="#g" transform="matrix(1,0,0,1,85,479.8852459016392) translate(134.7511111111111 96.5)"/><use xlink:href="#h" transform="matrix(1,0,0,1,85,479.8852459016392) translate(74.30666666666667 132.94444444444446)"/><use xlink:href="#i" transform="matrix(1,0,0,1,85,479.8852459016392) translate(148.93777777777777 132.94444444444446)"/><path d="M297.22 838.82c30 0 54.3 24.44 54.3 54.6 0 30.14-24.3 54.58-54.3 54.58H134.3c-30 0-54.3-24.44-54.3-54.6 0-30.14 24.3-54.58 54.3-54.58z" fill="#fcd1a5"/><use xlink:href="#j" transform="matrix(1,0,0,1,85,843.8196721311475) translate(31.302222222222213 60.22222222222223)"/><use xlink:href="#k" transform="matrix(1,0,0,1,85,843.8196721311475) translate(111.8711111111111 60.22222222222223)"/><path d="M215.76 169.18v87.55" stroke="#3d4752" stroke-width="2" fill="none"/><path d="M226.8 240.03l-11.04 18.67-11.04-18.67 1.72-1.02 9.32 15.77 9.32-15.76z" fill="#3d4752"/><path d="M215.76 385.23v87.26" stroke="#3d4752" stroke-width="2" fill="none"/><path d="M226.8 455.78l-11.04 18.67-11.04-18.67 1.72-1.02 9.32 15.76 9.32-15.76z" fill="#3d4752"/><path d="M215.76 693.25V837" stroke="#3d4752" stroke-width="2" fill="none"/><path d="M215.76 693.25h-1v-.8zm1 0h-1l1-.8zM226.8 820.3l-10.95 18.52h-.18l-10.95-18.53 1.72-1.02 9.32 15.76 9.32-15.76z" fill="#3d4752"/><path fill="#fff" d="M189.36 746.9h52.8v36.44h-52.8z"/><use xlink:href="#l" transform="matrix(1,0,0,1,189.35949367088608,746.9007285974499) translate(0 28.444444444444446)"/><path d="M650.2 474.9L795 584.06 650.2 693.25 505.37 584.07z" fill="#d6d6d6"/><use xlink:href="#m" transform="matrix(1,0,0,1,510.3797468354429,479.8852459016393) translate(83.03999999999999 96.5)"/><use xlink:href="#g" transform="matrix(1,0,0,1,510.3797468354429,479.8852459016393) translate(137.93777777777777 96.5)"/><use xlink:href="#n" transform="matrix(1,0,0,1,510.3797468354429,479.8852459016393) translate(77.15555555555555 132.94444444444446)"/><use xlink:href="#i" transform="matrix(1,0,0,1,510.3797468354429,479.8852459016393) translate(164.0888888888889 132.94444444444446)"/><path d="M650.2 474.9V322.02H331.15" stroke="#3d4752" stroke-width="2" fill="none"/><path d="M651.2 475.64l-1-.75-1 .74v-.75h2zM348.88 312.7l-15.76 9.33 15.76 9.32-1.02 1.72-16.7-9.88v-2.33l16.7-9.88z" fill="#3d4752"/><path fill="#fff" d="M623.8 402.7h52.8v36.45h-52.8z"/><use xlink:href="#l" transform="matrix(1,0,0,1,623.7898734177214,402.70570339958414) translate(0 28.444444444444446)"/><path d="M650.2 693.25V893.4H351.5" stroke="#3d4752" stroke-width="2" fill="none"/><path d="M650.2 693.25h-1v-.76zm1 0h-1l1-.76zM369.24 884.1l-15.76 9.3 15.76 9.33-1.02 1.72-16.75-9.9.05-1.14v-.76l-.03-.38 16.72-9.9z" fill="#3d4752"/><path fill="#fff" d="M627.3 761.54h45.8v36.44h-45.8z"/><g><use xlink:href="#o" transform="matrix(1,0,0,1,627.2920956399437,761.5415832841785) translate(0 28.444444444444446)"/></g><path d="M351.52 584.07h150.84" stroke="#3d4752" stroke-width="2" fill="none"/><path d="M351.52 585.07h-1.24l1.24-1-1.24-1h1.24zM504.33 584.07l-18.67 11.04-1.02-1.7 15.76-9.33-15.76-9.32 1.02-1.73z" fill="#3d4752"/><path fill="#fff" d="M385.7 565.84h45.8v36.44h-45.8z"/><g><use xlink:href="#o" transform="matrix(1,0,0,1,385.7113997045365,565.8433515482695) translate(0 28.444444444444446)"/></g><defs><path fill="#3d4752" d="M270-703c81-2 142 16 187 48v159h-26l-44-113c-29-15-58-27-110-26-74 3-130 32-130 106 0 126 160 125 239 187 44 35 87 78 84 156C466-56 380 8 250 11 165 13 102-9 55-43v-156h26l41 115c30 18 67 27 121 25 77-3 137-36 137-115 0-130-158-131-238-194-44-35-87-78-84-158 5-120 91-174 212-177" id="p"/><path fill="#3d4752" d="M337-34c-33 20-79 45-128 45-81 1-119-46-119-127v-315H4v-37l87-30v-131l83-30v161h145v67H173v306c1 40 13 70 55 70 28 0 64-17 80-30" id="q"/><path fill="#3d4752" d="M233-514c87 3 156 45 156 132v302l83 27v23L310 12v-71c-35 38-70 69-138 70C85 12 27-46 30-134c4-141 149-158 281-173-1-16 1-41 0-60-1-92-140-105-204-56l-36 86H45c1-38-1-78 1-114 49-38 100-66 187-63zm77 261c-95 7-197 18-199 118-1 55 31 89 86 87 57-2 84-40 113-72v-133" id="r"/><path fill="#3d4752" d="M316-434c-70 6-120 46-120 120v251l106 37V0H25v-26l88-36v-362l-92-27v-23l175-41v104c31-55 97-121 183-88v151h-26" id="s"/><g id="a"><use transform="matrix(0.035555555555555556,0,0,0.035555555555555556,0,0)" xlink:href="#p"/><use transform="matrix(0.035555555555555556,0,0,0.035555555555555556,18.666666666666668,0)" xlink:href="#q"/><use transform="matrix(0.035555555555555556,0,0,0.035555555555555556,30.826666666666668,0)" xlink:href="#r"/><use transform="matrix(0.035555555555555556,0,0,0.035555555555555556,47.964444444444446,0)" xlink:href="#s"/><use transform="matrix(0.035555555555555556,0,0,0.035555555555555556,62.29333333333334,0)" xlink:href="#q"/></g><path fill="#3d4752" d="M490 0H25v-26l89-37v-566l-89-37v-26h267v26l-88 37v556h210l66-129h26" id="t"/><path fill="#3d4752" d="M276-509c158 0 231 103 231 260 0 153-81 260-233 260C115 11 35-90 35-249c0-153 87-260 241-260zm-1 459c107 0 145-91 145-199s-37-199-145-199-153 91-153 199c0 109 43 199 153 199" id="u"/><path fill="#3d4752" d="M25-711l178-41v689l94 37V0H31v-26l88-37v-598l-94-27v-23zm276 430L490-56l77 30V0H425L208-260l188-201-69-28v-24h239v24l-102 33" id="v"/><g id="b"><use transform="matrix(0.035555555555555556,0,0,0.035555555555555556,0,0)" xlink:href="#t"/><use transform="matrix(0.035555555555555556,0,0,0.035555555555555556,18.16888888888889,0)" xlink:href="#u"/><use transform="matrix(0.035555555555555556,0,0,0.035555555555555556,37.44,0)" xlink:href="#u"/><use transform="matrix(0.035555555555555556,0,0,0.035555555555555556,56.71111111111111,0)" xlink:href="#v"/></g><path fill="#3d4752" d="M116-498c-10-162 38-266 193-264h66v148h-26l-37-88c-104-4-119 93-113 204h119v68H198v367l110 37V0H27v-26l88-37v-367H26v-38" id="w"/><g id="c"><use transform="matrix(0.035555555555555556,0,0,0.035555555555555556,0,0)" xlink:href="#w"/><use transform="matrix(0.035555555555555556,0,0,0.035555555555555556,12.231111111111112,0)" xlink:href="#u"/><use transform="matrix(0.035555555555555556,0,0,0.035555555555555556,31.502222222222223,0)" xlink:href="#s"/></g><path fill="#3d4752" d="M25-711l178-41v689l94 37V0H31v-26l88-37v-598l-94-27v-23" id="x"/><path fill="#3d4752" d="M229-509c47 0 105 15 135 34v127h-26l-37-86c-64-27-173-19-165 61 8 84 122 76 177 120 33 26 64 57 62 116-3 100-76 148-174 148C136 11 92-5 50-31v-127h26l36 87c55 34 183 31 177-55-7-93-117-87-177-128-34-23-63-52-61-109 3-102 78-146 178-146" id="y"/><g id="d"><use transform="matrix(0.035555555555555556,0,0,0.035555555555555556,0,0)" xlink:href="#x"/><use transform="matrix(0.035555555555555556,0,0,0.035555555555555556,10.915555555555555,0)" xlink:href="#u"/><use transform="matrix(0.035555555555555556,0,0,0.035555555555555556,30.186666666666667,0)" xlink:href="#y"/><use transform="matrix(0.035555555555555556,0,0,0.035555555555555556,45.297777777777775,0)" xlink:href="#q"/></g><path fill="#3d4752" d="M25-481l177-41v459l83 37V0H31v-26l88-37v-368l-94-27v-23zm200-200c0 37-21 56-62 56-42 0-63-18-63-54 0-37 21-55 63-55 41 0 62 18 62 53" id="z"/><path fill="#3d4752" d="M252-509c149 0 208 103 203 259H117c-1 108 29 194 135 194 63 0 113-26 147-60l44 43c-48 46-97 84-184 84C102 11 35-91 35-248c0-147 71-261 217-261zm126 200c19-124-147-176-220-93-20 23-30 59-37 93h257" id="A"/><path fill="#3d4752" d="M330-441c-71 2-99 56-135 95v283l83 37V0H27v-26l87-36v-361l-93-27v-23l174-41v90c37-40 87-85 159-85 64 1 125 34 134 93 42-42 86-91 165-93 99-3 146 54 145 151v295l89 37V0H632v-26l82-36v-300c1-48-32-81-80-79-71 4-99 57-137 97l1 281 83 37V0H338v-26l76-36v-299c1-48-37-82-84-80" id="B"/><g id="e"><use transform="matrix(0.035555555555555556,0,0,0.035555555555555556,0,0)" xlink:href="#z"/><use transform="matrix(0.035555555555555556,0,0,0.035555555555555556,10.666666666666666,0)" xlink:href="#q"/><use transform="matrix(0.035555555555555556,0,0,0.035555555555555556,22.826666666666668,0)" xlink:href="#A"/><use transform="matrix(0.035555555555555556,0,0,0.035555555555555556,40.42666666666667,0)" xlink:href="#B"/></g><path fill="#3d4752" d="M294 0C209 0 108 2 25-1v-26l89-37v-571l-89-37v-26h292c227 1 370 93 370 321C687-133 537 0 294 0zm-92-68c248 21 391-75 393-304 2-221-163-272-393-256v560" id="C"/><path fill="#3d4752" d="M255-509c65 0 107 14 141 47v-197l-94-28v-22c58-14 117-27 174-42v677l83 26v22L396 15c0-21-1-54 0-79-36 39-79 75-151 75C100 11 35-86 35-231c0-155 64-278 220-278zm141 125c-22-39-80-64-135-64-109 0-139 105-139 215 0 100 41 183 141 183 70 0 104-49 133-95v-239" id="D"/><g id="f"><use transform="matrix(0.035555555555555556,0,0,0.035555555555555556,0,0)" xlink:href="#C"/><use transform="matrix(0.035555555555555556,0,0,0.035555555555555556,25.84888888888889,0)" xlink:href="#z"/><use transform="matrix(0.035555555555555556,0,0,0.035555555555555556,36.51555555555556,0)" xlink:href="#D"/></g><path fill="#3d4752" d="M144-459c47 125 101 243 139 377 35-130 83-246 123-370l-69-35v-26h210v26l-61 35C419-263 339-36 271 135c-33 87-88 133-212 123v-59c68 6 106-10 127-60 18-42 35-96 50-140L54-459l-64-28v-26h227v26" id="E"/><path fill="#3d4752" d="M250 11C150 11 92-32 92-134v-294L5-454v-24l171-40v381c0 54 35 77 87 77 74 0 108-53 145-95v-273l-88-26v-24l168-40v436l83 27v23L408 10v-86c-38 42-83 87-158 87" id="F"/><g id="g"><use transform="matrix(0.035555555555555556,0,0,0.035555555555555556,0,0)" xlink:href="#E"/><use transform="matrix(0.035555555555555556,0,0,0.035555555555555556,18.915555555555557,0)" xlink:href="#u"/><use transform="matrix(0.035555555555555556,0,0,0.035555555555555556,38.18666666666667,0)" xlink:href="#F"/></g><path fill="#3d4752" d="M338-438c-74 0-103 54-140 95v280l78 37V0H26v-26l88-37v-360l-93-27v-23l177-41v91c34-39 85-86 153-86 100 1 162 43 162 145v301l88 37V0H346v-26l83-37v-298c-1-54-38-77-91-77" id="G"/><g id="h"><use transform="matrix(0.035555555555555556,0,0,0.035555555555555556,0,0)" xlink:href="#w"/><use transform="matrix(0.035555555555555556,0,0,0.035555555555555556,12.231111111111112,0)" xlink:href="#z"/><use transform="matrix(0.035555555555555556,0,0,0.035555555555555556,22.897777777777776,0)" xlink:href="#G"/><use transform="matrix(0.035555555555555556,0,0,0.035555555555555556,44.62222222222222,0)" xlink:href="#D"/></g><path fill="#3d4752" d="M211-703c126 1 210 48 211 175 2 138-117 159-172 240-18 26-12 68-13 109h-86v-52c-1-161 181-142 185-296 3-103-118-131-210-97L78-496H50v-169c50-18 95-38 161-38zm-16 593c44 0 62 16 62 60-1 45-16 60-61 60-46 0-64-15-64-60 0-44 18-60 63-60" id="H"/><g id="i"><use transform="matrix(0.035555555555555556,0,0,0.035555555555555556,0,0)" xlink:href="#z"/><use transform="matrix(0.035555555555555556,0,0,0.035555555555555556,10.666666666666666,0)" xlink:href="#q"/><use transform="matrix(0.035555555555555556,0,0,0.035555555555555556,22.826666666666668,0)" xlink:href="#H"/></g><path fill="#3d4752" d="M324 11c-66 0-101-13-136-46v229l110 33v26H20v-26l88-33v-614l-88-27v-24l168-41v77c37-38 77-75 149-74 145 2 210 98 210 243 0 155-67 277-223 277zm-6-61c110 0 142-104 142-214 0-101-41-181-141-184-65-2-102 52-128 94l1 240c23 39 70 64 126 64" id="I"/><g id="j"><use transform="matrix(0.035555555555555556,0,0,0.035555555555555556,0,0)" xlink:href="#p"/><use transform="matrix(0.035555555555555556,0,0,0.035555555555555556,18.666666666666668,0)" xlink:href="#q"/><use transform="matrix(0.035555555555555556,0,0,0.035555555555555556,30.826666666666668,0)" xlink:href="#u"/><use transform="matrix(0.035555555555555556,0,0,0.035555555555555556,50.09777777777778,0)" xlink:href="#I"/></g><path fill="#3d4752" d="M171-186c-28 9-72 68-16 82C280-73 468-83 468 67c0 156-143 209-304 189-82-10-142-52-142-145C22 27 92-8 149-37 93-44 7-71 46-139c18-31 57-50 88-68-72-42-81-200-12-260 44-38 127-63 198-37l158-15v34l-83 38c32 34 44 118 23 175-31 81-147 125-247 86zm38 159C146-1 71 69 114 158c30 63 162 55 218 18 29-19 55-47 51-93-7-88-92-94-174-110zm-29-235c60 75 184 20 169-81-9-64-29-114-99-116-98-3-122 132-70 197" id="J"/><g id="k"><use transform="matrix(0.035555555555555556,0,0,0.035555555555555556,0,0)" xlink:href="#x"/><use transform="matrix(0.035555555555555556,0,0,0.035555555555555556,10.915555555555555,0)" xlink:href="#u"/><use transform="matrix(0.035555555555555556,0,0,0.035555555555555556,30.186666666666667,0)" xlink:href="#u"/><use transform="matrix(0.035555555555555556,0,0,0.035555555555555556,49.45777777777778,0)" xlink:href="#v"/><use transform="matrix(0.035555555555555556,0,0,0.035555555555555556,69.44,0)" xlink:href="#z"/><use transform="matrix(0.035555555555555556,0,0,0.035555555555555556,80.10666666666667,0)" xlink:href="#G"/><use transform="matrix(0.035555555555555556,0,0,0.035555555555555556,101.83111111111111,0)" xlink:href="#J"/></g><path fill="#3d4752" d="M602-628L371-323l1 260 112 37V0H172v-26l112-37v-253L58-628l-78-37v-26h258v26l-73 37c55 79 116 160 166 242 50-82 116-163 171-242l-73-37v-26h250v26" id="K"/><g id="l"><use transform="matrix(0.035555555555555556,0,0,0.035555555555555556,0,0)" xlink:href="#K"/><use transform="matrix(0.035555555555555556,0,0,0.035555555555555556,20.08888888888889,0)" xlink:href="#A"/><use transform="matrix(0.035555555555555556,0,0,0.035555555555555556,37.68888888888889,0)" xlink:href="#y"/></g><g id="m"><use transform="matrix(0.035555555555555556,0,0,0.035555555555555556,0,0)" xlink:href="#C"/><use transform="matrix(0.035555555555555556,0,0,0.035555555555555556,25.84888888888889,0)" xlink:href="#u"/></g><g id="n"><use transform="matrix(0.035555555555555556,0,0,0.035555555555555556,0,0)" xlink:href="#G"/><use transform="matrix(0.035555555555555556,0,0,0.035555555555555556,21.724444444444444,0)" xlink:href="#A"/><use transform="matrix(0.035555555555555556,0,0,0.035555555555555556,39.324444444444445,0)" xlink:href="#A"/><use transform="matrix(0.035555555555555556,0,0,0.035555555555555556,56.92444444444445,0)" xlink:href="#D"/></g><path fill="#3d4752" d="M572-99c-5-173-2-353-3-530l-87-37v-26h254v26l-89 37V0H545C426-198 295-382 187-591c6 171 2 352 3 528l88 37V0H25v-26l88-36v-567l-88-37v-26l186 1C331-493 467-311 572-99" id="L"/><g id="o"><use transform="matrix(0.035555555555555556,0,0,0.035555555555555556,0,0)" xlink:href="#L"/><use transform="matrix(0.035555555555555556,0,0,0.035555555555555556,26.524444444444445,0)" xlink:href="#u"/></g></defs></g></svg>